<svg width="540" height="254" viewBox="0 0 540 254" fill="none" xmlns="http://www.w3.org/2000/svg">
<path d="M163.808 76.112C162.187 74.32 161.376 72.2293 161.376 69.84C161.376 67.4507 162.187 65.4027 163.808 63.696C165.429 61.904 167.349 61.008 169.568 61.008C171.872 61.008 173.792 61.8613 175.328 63.568C176.949 65.2747 177.76 67.3653 177.76 69.84C177.76 72.2293 176.949 74.32 175.328 76.112C173.792 77.8187 171.872 78.672 169.568 78.672C167.349 78.672 165.429 77.8187 163.808 76.112ZM137.696 67.536C137.696 77.8613 140.725 86.864 146.784 94.544C152.928 102.224 160.779 106.064 170.336 106.064C179.893 106.064 187.445 103.035 192.992 96.976C198.624 90.832 201.44 82.5973 201.44 72.272C201.44 61.8613 198.368 52.816 192.224 45.136C186.165 37.456 178.315 33.616 168.672 33.616C159.115 33.616 151.563 36.688 146.016 42.832C140.469 48.8907 137.696 57.1253 137.696 67.536ZM166.496 114.768C155.403 114.768 146.059 110.8 138.464 102.864C130.955 94.8427 127.2 85.1573 127.2 73.808C127.2 59.6427 131.467 47.952 140 38.736C148.533 29.52 159.413 24.912 172.64 24.912C183.733 24.912 193.035 28.9227 200.544 36.944C208.139 44.88 211.936 54.5227 211.936 65.872C211.936 80.0373 207.669 91.728 199.136 100.944C190.603 110.16 179.723 114.768 166.496 114.768ZM230.229 151.12C228.608 151.12 227.157 150.48 225.877 149.2C224.682 148.005 224.085 146.256 224.085 143.952C224.085 143.525 224.469 140.709 225.237 135.504C226.09 130.299 226.517 121.595 226.517 109.392C226.517 97.1893 226.304 86.0107 225.877 75.856C225.792 73.8933 225.024 71.632 223.573 69.072C222.208 66.512 221.525 64.2507 221.525 62.288C221.525 60.3253 222.165 58.7467 223.445 57.552C224.725 56.272 226.176 55.632 227.797 55.632C232.064 55.632 234.197 59.0027 234.197 65.744V71.76C237.781 66.8107 242.09 62.8853 247.125 59.984C252.245 57.0827 256.981 55.632 261.333 55.632C267.05 55.632 271.658 57.7653 275.157 62.032C278.656 66.2133 280.405 71.12 280.405 76.752C280.405 82.384 279.296 87.632 277.077 92.496C274.858 97.36 272.042 101.371 268.629 104.528C265.216 107.685 261.589 110.203 257.749 112.08C253.909 113.872 250.24 114.768 246.741 114.768C242.645 114.768 240.597 112.763 240.597 108.752C240.597 106.96 241.237 105.637 242.517 104.784C243.797 103.931 245.077 103.504 246.357 103.504C247.637 103.504 248.96 103.717 250.325 104.144C251.776 104.571 253.098 104.784 254.293 104.784C259.413 104.784 263.722 102.907 267.221 99.152C270.72 95.312 272.469 90.6613 272.469 85.2C272.469 79.7387 270.72 75.1307 267.221 71.376C263.722 67.6213 259.413 65.744 254.293 65.744C247.637 65.744 242.73 68.432 239.573 73.808C236.501 79.184 234.965 86.5227 234.965 95.824C234.965 100.773 235.306 108.581 235.989 119.248C236.672 129.915 237.013 137.168 237.013 141.008C237.013 147.749 234.752 151.12 230.229 151.12ZM319.209 65.104C318.782 65.104 313.449 64.7627 303.209 64.08C303.209 65.1893 303.038 69.4133 302.697 76.752C302.356 84.0907 302.185 89.552 302.185 93.136C302.185 96.6347 302.953 99.5787 304.489 101.968C306.11 104.272 306.921 106.363 306.921 108.24C306.921 110.117 306.281 111.696 305.001 112.976C303.721 114.171 302.27 114.768 300.649 114.768C296.382 114.768 294.249 111.397 294.249 104.656L293.737 78.672C293.737 73.3813 293.609 68.6453 293.353 64.464H290.281C289.086 64.464 288.105 64.1227 287.337 63.44C286.569 62.672 286.185 61.648 286.185 60.368C286.185 59.088 286.569 58.1067 287.337 57.424C288.105 56.656 289.086 56.272 290.281 56.272H292.969C292.798 51.8347 292.713 48.464 292.713 46.16C292.713 43.7707 293.268 41.8933 294.377 40.528C295.572 39.0773 296.98 38.352 298.601 38.352C300.222 38.352 301.545 39.0347 302.569 40.4C303.593 41.68 304.105 43.8133 304.105 46.8C304.105 49.7867 303.977 53.072 303.721 56.656L319.209 55.632C322.537 55.632 324.201 57.2107 324.201 60.368C324.201 63.5253 322.537 65.104 319.209 65.104ZM336.478 104.656C336.478 93.904 336.265 84.4747 335.838 76.368C335.411 68.2613 335.198 63.4827 335.198 62.032C335.198 60.5813 335.753 59.1733 336.862 57.808C338.057 56.3573 339.465 55.632 341.086 55.632C342.707 55.632 344.03 56.3147 345.054 57.68C346.078 58.96 346.59 60.88 346.59 63.44C346.59 65.9147 346.291 70.1387 345.694 76.112C345.097 82 344.798 88.144 344.798 94.544C344.798 97.104 345.31 99.5787 346.334 101.968C347.443 104.272 347.998 106.405 347.998 108.368C347.998 110.245 347.443 111.781 346.334 112.976C345.31 114.171 343.859 114.768 341.982 114.768C340.19 114.768 338.825 113.744 337.886 111.696C336.947 109.648 336.478 107.301 336.478 104.656ZM340.574 41.168C338.697 41.168 337.203 40.656 336.094 39.632C334.985 38.608 334.43 37.1147 334.43 35.152C334.43 33.1893 335.113 31.5253 336.478 30.16C337.843 28.7093 339.465 27.984 341.342 27.984C343.219 27.984 344.713 28.5387 345.822 29.648C347.017 30.672 347.614 32.1653 347.614 34.128C347.614 36.0907 346.889 37.7547 345.438 39.12C344.073 40.4853 342.451 41.168 340.574 41.168ZM376.697 24.144L375.545 65.36V73.168C379.129 67.8773 383.694 63.6533 389.241 60.496C394.788 57.2533 399.652 55.632 403.833 55.632C411.684 55.632 415.609 57.8933 415.609 62.416C415.609 64.2933 415.012 65.8293 413.817 67.024C412.708 68.1333 411.556 68.688 410.361 68.688C409.252 68.688 407.374 68.176 404.729 67.152C402.084 66.128 399.481 65.616 396.921 65.616C390.009 65.616 384.676 68.4747 380.921 74.192C389.369 82.2987 397.561 89.3387 405.497 95.312C412.068 100.261 415.865 103.461 416.889 104.912C417.913 106.363 418.425 107.856 418.425 109.392C418.425 110.928 417.913 112.208 416.889 113.232C415.865 114.256 414.5 114.768 412.793 114.768C411.172 114.768 409.294 113.872 407.161 112.08C405.113 110.203 401.188 106.491 395.385 100.944C389.582 95.312 383.097 89.6373 375.929 83.92C376.441 94.672 376.697 102.907 376.697 108.624C376.697 110.416 376.185 111.909 375.161 113.104C374.137 114.213 372.814 114.768 371.193 114.768C369.572 114.768 368.164 114.213 366.969 113.104C365.86 111.909 365.305 109.989 365.305 107.344C365.305 104.699 365.518 98.4267 365.945 88.528C366.372 78.544 366.585 70.8213 366.585 65.36C366.585 59.8987 366.372 52.56 365.945 43.344C365.518 34.128 365.305 28.1973 365.305 25.552C365.305 22.9067 365.86 20.9867 366.969 19.792C368.164 18.5973 369.572 18 371.193 18C372.814 18 374.137 18.5973 375.161 19.792C376.185 20.9013 376.697 22.352 376.697 24.144Z" fill="white"/>
<path d="M68.56 143.424C63.696 137.536 58.704 134.592 53.584 134.592C49.5733 134.592 46.2027 135.957 43.472 138.688C40.7413 141.419 39.376 144.661 39.376 148.416C39.376 152.171 40.4427 155.285 42.576 157.76C44.7947 160.235 47.5253 162.283 50.768 163.904C54.0107 165.525 57.5093 167.445 61.264 169.664C65.0187 171.797 68.5173 174.059 71.76 176.448C75.0027 178.752 77.6907 181.952 79.824 186.048C82.0427 190.059 83.152 195.008 83.152 200.896C83.152 206.784 82 212.629 79.696 218.432C77.392 224.235 74.3627 229.227 70.608 233.408C66.8533 237.589 62.544 241.173 57.68 244.16C47.952 250.133 37.84 253.12 27.344 253.12C20.2613 253.12 14.1173 251.371 8.912 247.872C3.62133 244.373 0.976 240.405 0.976 235.968C0.976 231.531 3.06667 229.312 7.248 229.312C8.86933 229.312 12.1547 231.573 17.104 236.096C18.9813 237.803 21.5413 239.339 24.784 240.704C28.112 242.155 31.7813 242.88 35.792 242.88C39.888 242.88 44.1547 242.112 48.592 240.576C53.0293 239.04 57.168 236.821 61.008 233.92C64.9333 231.104 68.0907 227.307 70.48 222.528C72.8693 217.835 74.064 212.587 74.064 206.784C74.064 200.896 72.528 195.904 69.456 191.808C66.384 187.712 62.672 184.512 58.32 182.208C53.968 179.904 49.616 177.685 45.264 175.552C40.912 173.333 37.2 170.517 34.128 167.104C31.056 163.691 29.52 159.552 29.52 154.688C29.52 149.739 30.5867 145.344 32.72 141.504C34.9387 137.664 37.712 134.763 41.04 132.8C47.3547 128.875 53.6267 126.912 59.856 126.912C66.0853 126.912 71.1627 128.363 75.088 131.264C79.0133 134.165 80.976 137.493 80.976 141.248C80.976 143.467 80.4213 145.173 79.312 146.368C78.2027 147.477 76.9227 148.032 75.472 148.032C74.0213 148.032 72.784 147.648 71.76 146.88C70.8213 146.027 69.7547 144.875 68.56 143.424ZM115.339 190.528L100.107 189.248C98.6563 189.248 97.5043 189.376 96.651 189.632C97.163 194.496 99.211 198.549 102.795 201.792C106.464 205.035 110.774 206.656 115.723 206.656C120.502 206.656 124.811 204.907 128.651 201.408C130.016 200.213 131.04 199.616 131.723 199.616C132.406 199.616 133.003 199.872 133.515 200.384C134.027 200.896 134.283 201.451 134.283 202.048C134.283 204.523 131.851 207.595 126.987 211.264C122.208 214.933 116.747 216.768 110.603 216.768C104.544 216.768 99.2537 214.293 94.731 209.344C90.2937 204.395 88.075 198.251 88.075 190.912C88.075 181.525 91.6163 173.632 98.699 167.232C105.782 160.832 113.59 157.632 122.123 157.632C125.707 157.632 128.608 158.272 130.827 159.552C133.131 160.747 134.283 162.325 134.283 164.288C134.283 166.165 133.686 167.701 132.491 168.896C131.382 170.091 130.272 170.688 129.163 170.688C128.054 170.688 126.134 170.176 123.403 169.152C120.758 168.128 118.198 167.616 115.723 167.616C111.115 167.616 107.104 169.024 103.691 171.84C100.363 174.571 98.1443 177.984 97.035 182.08L114.699 181.056C118.624 181.056 120.587 182.592 120.587 185.664C120.587 188.907 118.838 190.528 115.339 190.528ZM144.939 195.52C144.939 195.52 145.28 187.712 145.963 172.096C145.963 158.187 145.622 147.307 144.939 139.456C144.256 131.605 143.915 127.552 143.915 127.296C143.915 122.432 145.792 120 149.547 120C154.07 120 156.331 123.499 156.331 130.496C156.331 134.677 155.862 141.803 154.923 151.872C154.07 161.941 153.6 168.64 153.515 171.968C157.099 167.531 161.366 164.032 166.315 161.472C171.35 158.912 176.384 157.632 181.419 157.632C186.539 157.632 190.976 159.723 194.731 163.904C198.571 168 200.491 172.992 200.491 178.88C200.491 188.352 196.864 197.056 189.611 204.992C182.358 212.843 174.123 216.768 164.907 216.768C159.19 216.768 154.411 214.72 150.571 210.624C146.816 206.443 144.939 201.408 144.939 195.52ZM158.891 173.376C155.136 177.131 153.259 181.739 153.259 187.2C153.259 192.661 155.136 197.312 158.891 201.152C162.731 204.907 167.339 206.784 172.715 206.784C178.176 206.784 182.742 204.907 186.411 201.152C190.08 197.312 191.915 192.661 191.915 187.2C191.915 181.739 190.08 177.131 186.411 173.376C182.742 169.621 178.176 167.744 172.715 167.744C167.339 167.744 162.731 169.621 158.891 173.376ZM213.478 206.656C213.478 195.904 213.265 186.475 212.838 178.368C212.411 170.261 212.198 165.483 212.198 164.032C212.198 162.581 212.753 161.173 213.862 159.808C215.057 158.357 216.465 157.632 218.086 157.632C219.707 157.632 221.03 158.315 222.054 159.68C223.078 160.96 223.59 162.88 223.59 165.44C223.59 167.915 223.291 172.139 222.694 178.112C222.097 184 221.798 190.144 221.798 196.544C221.798 199.104 222.31 201.579 223.334 203.968C224.443 206.272 224.998 208.405 224.998 210.368C224.998 212.245 224.443 213.781 223.334 214.976C222.31 216.171 220.859 216.768 218.982 216.768C217.19 216.768 215.825 215.744 214.886 213.696C213.947 211.648 213.478 209.301 213.478 206.656ZM217.574 143.168C215.697 143.168 214.203 142.656 213.094 141.632C211.985 140.608 211.43 139.115 211.43 137.152C211.43 135.189 212.113 133.525 213.478 132.16C214.843 130.709 216.465 129.984 218.342 129.984C220.219 129.984 221.713 130.539 222.822 131.648C224.017 132.672 224.614 134.165 224.614 136.128C224.614 138.091 223.889 139.755 222.438 141.12C221.073 142.485 219.451 143.168 217.574 143.168ZM252.929 179.392L253.697 210.624C253.697 212.416 253.185 213.909 252.161 215.104C251.137 216.213 249.814 216.768 248.193 216.768C246.572 216.768 245.164 216.213 243.969 215.104C242.86 213.909 242.305 212.416 242.305 210.624L243.201 185.28C243.201 185.28 242.902 178.155 242.305 163.904C242.305 162.112 242.86 160.619 243.969 159.424C245.164 158.229 246.572 157.632 248.193 157.632C249.814 157.632 251.137 158.229 252.161 159.424C253.185 160.533 253.697 161.941 253.697 163.648C253.697 165.355 253.654 166.635 253.569 167.488C258.348 160.917 263.852 157.632 270.081 157.632C279.041 157.632 284.801 163.648 287.361 175.68L292.225 197.696C292.737 199.659 293.761 201.792 295.297 204.096C296.918 206.315 297.729 208.32 297.729 210.112C297.729 214.549 295.596 216.768 291.329 216.768C287.062 216.768 284.289 213.397 283.009 206.656L278.145 179.904C276.524 171.371 272.129 167.104 264.961 167.104C261.292 167.104 258.433 168.341 256.385 170.816C254.337 173.291 253.185 176.149 252.929 179.392ZM337.834 167.104C337.407 167.104 332.074 166.763 321.834 166.08C321.834 167.189 321.663 171.413 321.322 178.752C320.981 186.091 320.81 191.552 320.81 195.136C320.81 198.635 321.578 201.579 323.114 203.968C324.735 206.272 325.546 208.363 325.546 210.24C325.546 212.117 324.906 213.696 323.626 214.976C322.346 216.171 320.895 216.768 319.274 216.768C315.007 216.768 312.874 213.397 312.874 206.656L312.362 180.672C312.362 175.381 312.234 170.645 311.978 166.464H308.906C307.711 166.464 306.73 166.123 305.962 165.44C305.194 164.672 304.81 163.648 304.81 162.368C304.81 161.088 305.194 160.107 305.962 159.424C306.73 158.656 307.711 158.272 308.906 158.272H311.594C311.423 153.835 311.338 150.464 311.338 148.16C311.338 145.771 311.893 143.893 313.002 142.528C314.197 141.077 315.605 140.352 317.226 140.352C318.847 140.352 320.17 141.035 321.194 142.4C322.218 143.68 322.73 145.813 322.73 148.8C322.73 151.787 322.602 155.072 322.346 158.656L337.834 157.632C341.162 157.632 342.826 159.211 342.826 162.368C342.826 165.525 341.162 167.104 337.834 167.104ZM394.271 198.848C394.868 200.384 396.106 202.475 397.983 205.12C399.946 207.68 400.927 209.771 400.927 211.392C400.927 213.013 400.5 214.336 399.647 215.36C398.794 216.299 397.642 216.768 396.191 216.768C392.692 216.768 389.578 213.141 386.847 205.888L385.823 203.072C381.471 212.203 374.943 216.768 366.239 216.768C361.887 216.768 358.26 215.403 355.359 212.672C352.543 209.856 351.135 206.357 351.135 202.176C351.135 195.691 353.354 190.101 357.791 185.408C362.228 180.715 368.031 178.197 375.199 177.856C373.492 174.869 371.572 172.651 369.439 171.2C367.391 169.664 365.514 168.768 363.807 168.512C362.1 168.256 360.479 168.128 358.943 168.128C357.492 168.043 356.34 167.701 355.487 167.104C354.634 166.507 354.207 165.355 354.207 163.648C354.207 161.856 354.89 160.405 356.255 159.296C357.706 158.187 359.412 157.632 361.375 157.632C366.922 157.632 372.383 160.405 377.759 165.952C383.135 171.499 387.828 180.203 391.839 192.064L394.271 198.848ZM371.999 184.64C368.927 184.64 366.154 185.664 363.679 187.712C361.29 189.76 360.095 192.405 360.095 195.648C360.095 198.891 361.162 201.621 363.295 203.84C365.514 205.973 368.159 207.04 371.231 207.04C374.303 207.04 376.948 205.973 379.167 203.84C381.386 201.621 382.495 199.019 382.495 196.032C382.495 193.899 382.111 191.936 381.343 190.144C380.575 188.267 380.106 187.115 379.935 186.688C377.716 185.323 375.071 184.64 371.999 184.64ZM422.429 179.392L423.197 210.624C423.197 212.416 422.685 213.909 421.661 215.104C420.637 216.213 419.314 216.768 417.693 216.768C416.072 216.768 414.664 216.213 413.469 215.104C412.36 213.909 411.805 212.416 411.805 210.624L412.701 185.28C412.701 185.28 412.402 178.155 411.805 163.904C411.805 162.112 412.36 160.619 413.469 159.424C414.664 158.229 416.072 157.632 417.693 157.632C419.314 157.632 420.637 158.229 421.661 159.424C422.685 160.533 423.197 161.941 423.197 163.648C423.197 165.355 423.154 166.635 423.069 167.488C427.848 160.917 433.352 157.632 439.581 157.632C448.541 157.632 454.301 163.648 456.861 175.68L461.725 197.696C462.237 199.659 463.261 201.792 464.797 204.096C466.418 206.315 467.229 208.32 467.229 210.112C467.229 214.549 465.096 216.768 460.829 216.768C456.562 216.768 453.789 213.397 452.509 206.656L447.645 179.904C446.024 171.371 441.629 167.104 434.461 167.104C430.792 167.104 427.933 168.341 425.885 170.816C423.837 173.291 422.685 176.149 422.429 179.392ZM502.982 167.744C497.521 167.744 492.87 169.621 489.03 173.376C485.275 177.131 483.398 181.739 483.398 187.2C483.398 192.661 485.275 197.312 489.03 201.152C492.87 204.907 497.435 206.784 502.726 206.784C508.017 206.784 512.411 205.12 515.91 201.792C519.494 198.379 521.499 194.155 521.926 189.12C521.841 186.645 521.798 183.829 521.798 180.672C521.798 177.515 522.353 175.253 523.462 173.888C524.657 172.437 526.065 171.712 527.686 171.712C529.307 171.712 530.63 172.395 531.654 173.76C532.678 175.04 533.19 176.619 533.19 178.496C533.19 180.373 533.105 182.251 532.934 184.128C532.849 185.92 532.678 188.267 532.422 191.168C531.569 200.64 531.142 209.515 531.142 217.792C531.142 226.069 527.473 234.005 520.134 241.6C512.795 249.28 504.603 253.12 495.558 253.12C491.035 253.12 487.11 251.84 483.782 249.28C480.454 246.72 478.79 243.947 478.79 240.96C478.79 239.424 479.302 238.059 480.326 236.864C481.435 235.669 482.715 235.072 484.166 235.072C485.702 235.072 487.067 235.499 488.262 236.352C489.542 237.205 490.694 238.144 491.718 239.168C492.827 240.192 494.449 241.131 496.582 241.984C498.801 242.837 501.275 243.264 504.006 243.264C509.382 243.264 513.862 241.259 517.446 237.248C521.03 233.323 522.822 228.629 522.822 223.168C522.822 222.485 522.694 215.36 522.438 201.792C518.769 206.4 514.374 210.069 509.254 212.8C504.219 215.445 499.441 216.768 494.918 216.768C488.945 216.768 484.123 214.635 480.454 210.368C476.785 206.101 474.95 200.768 474.95 194.368C474.95 187.883 476.955 181.653 480.966 175.68C484.977 169.621 489.67 165.099 495.046 162.112C500.422 159.125 505.243 157.632 509.51 157.632C513.777 157.632 516.763 158.315 518.47 159.68C520.262 160.96 521.158 162.539 521.158 164.416C521.158 166.208 520.561 167.701 519.366 168.896C518.257 170.091 517.147 170.688 516.038 170.688C515.014 170.688 513.137 170.219 510.406 169.28C507.761 168.256 505.286 167.744 502.982 167.744Z" fill="white"/>
</svg>
