<svg width="848" height="134" viewBox="0 0 848 134" fill="none" xmlns="http://www.w3.org/2000/svg">
<path d="M36.808 58.112C35.1867 56.32 34.376 54.2293 34.376 51.84C34.376 49.4507 35.1867 47.4027 36.808 45.696C38.4293 43.904 40.3493 43.008 42.568 43.008C44.872 43.008 46.792 43.8613 48.328 45.568C49.9493 47.2747 50.76 49.3653 50.76 51.84C50.76 54.2293 49.9493 56.32 48.328 58.112C46.792 59.8187 44.872 60.672 42.568 60.672C40.3493 60.672 38.4293 59.8187 36.808 58.112ZM10.696 49.536C10.696 59.8613 13.7253 68.864 19.784 76.544C25.928 84.224 33.7787 88.064 43.336 88.064C52.8933 88.064 60.4453 85.0347 65.992 78.976C71.624 72.832 74.44 64.5973 74.44 54.272C74.44 43.8613 71.368 34.816 65.224 27.136C59.1653 19.456 51.3147 15.616 41.672 15.616C32.1147 15.616 24.5627 18.688 19.016 24.832C13.4693 30.8907 10.696 39.1253 10.696 49.536ZM39.496 96.768C28.4027 96.768 19.0587 92.8 11.464 84.864C3.95467 76.8427 0.2 67.1573 0.2 55.808C0.2 41.6427 4.46667 29.952 13 20.736C21.5333 11.52 32.4133 6.91199 45.64 6.91199C56.7333 6.91199 66.0347 10.9227 73.544 18.944C81.1387 26.88 84.936 36.5227 84.936 47.872C84.936 62.0373 80.6693 73.728 72.136 82.944C63.6027 92.16 52.7227 96.768 39.496 96.768ZM103.229 133.12C101.608 133.12 100.157 132.48 98.877 131.2C97.6823 130.005 97.085 128.256 97.085 125.952C97.085 125.525 97.469 122.709 98.237 117.504C99.0903 112.299 99.517 103.595 99.517 91.392C99.517 79.1893 99.3037 68.0107 98.877 57.856C98.7917 55.8933 98.0237 53.632 96.573 51.072C95.2077 48.512 94.525 46.2507 94.525 44.288C94.525 42.3253 95.165 40.7467 96.445 39.552C97.725 38.272 99.1757 37.632 100.797 37.632C105.064 37.632 107.197 41.0027 107.197 47.744V53.76C110.781 48.8107 115.09 44.8853 120.125 41.984C125.245 39.0827 129.981 37.632 134.333 37.632C140.05 37.632 144.658 39.7653 148.157 44.032C151.656 48.2133 153.405 53.12 153.405 58.752C153.405 64.384 152.296 69.632 150.077 74.496C147.858 79.36 145.042 83.3707 141.629 86.528C138.216 89.6853 134.589 92.2027 130.749 94.08C126.909 95.872 123.24 96.768 119.741 96.768C115.645 96.768 113.597 94.7627 113.597 90.752C113.597 88.96 114.237 87.6373 115.517 86.784C116.797 85.9307 118.077 85.504 119.357 85.504C120.637 85.504 121.96 85.7173 123.325 86.144C124.776 86.5707 126.098 86.784 127.293 86.784C132.413 86.784 136.722 84.9067 140.221 81.152C143.72 77.312 145.469 72.6613 145.469 67.2C145.469 61.7387 143.72 57.1307 140.221 53.376C136.722 49.6213 132.413 47.744 127.293 47.744C120.637 47.744 115.73 50.432 112.573 55.808C109.501 61.184 107.965 68.5227 107.965 77.824C107.965 82.7733 108.306 90.5813 108.989 101.248C109.672 111.915 110.013 119.168 110.013 123.008C110.013 129.749 107.752 133.12 103.229 133.12ZM192.209 47.104C191.782 47.104 186.449 46.7627 176.209 46.08C176.209 47.1893 176.038 51.4133 175.697 58.752C175.356 66.0907 175.185 71.552 175.185 75.136C175.185 78.6347 175.953 81.5787 177.489 83.968C179.11 86.272 179.921 88.3627 179.921 90.24C179.921 92.1173 179.281 93.696 178.001 94.976C176.721 96.1707 175.27 96.768 173.649 96.768C169.382 96.768 167.249 93.3973 167.249 86.656L166.737 60.672C166.737 55.3813 166.609 50.6453 166.353 46.464H163.281C162.086 46.464 161.105 46.1227 160.337 45.44C159.569 44.672 159.185 43.648 159.185 42.368C159.185 41.088 159.569 40.1067 160.337 39.424C161.105 38.656 162.086 38.272 163.281 38.272H165.969C165.798 33.8347 165.713 30.464 165.713 28.16C165.713 25.7707 166.268 23.8933 167.377 22.528C168.572 21.0773 169.98 20.352 171.601 20.352C173.222 20.352 174.545 21.0347 175.569 22.4C176.593 23.68 177.105 25.8133 177.105 28.8C177.105 31.7867 176.977 35.072 176.721 38.656L192.209 37.632C195.537 37.632 197.201 39.2107 197.201 42.368C197.201 45.5253 195.537 47.104 192.209 47.104ZM209.478 86.656C209.478 75.904 209.265 66.4747 208.838 58.368C208.411 50.2613 208.198 45.4827 208.198 44.032C208.198 42.5813 208.753 41.1733 209.862 39.808C211.057 38.3573 212.465 37.632 214.086 37.632C215.707 37.632 217.03 38.3147 218.054 39.68C219.078 40.96 219.59 42.88 219.59 45.44C219.59 47.9147 219.291 52.1387 218.694 58.112C218.097 64 217.798 70.144 217.798 76.544C217.798 79.104 218.31 81.5787 219.334 83.968C220.443 86.272 220.998 88.4053 220.998 90.368C220.998 92.2453 220.443 93.7813 219.334 94.976C218.31 96.1707 216.859 96.768 214.982 96.768C213.19 96.768 211.825 95.744 210.886 93.696C209.947 91.648 209.478 89.3013 209.478 86.656ZM213.574 23.168C211.697 23.168 210.203 22.656 209.094 21.632C207.985 20.608 207.43 19.1147 207.43 17.152C207.43 15.1893 208.113 13.5253 209.478 12.16C210.843 10.7093 212.465 9.98399 214.342 9.98399C216.219 9.98399 217.713 10.5387 218.822 11.648C220.017 12.672 220.614 14.1653 220.614 16.128C220.614 18.0907 219.889 19.7547 218.438 21.12C217.073 22.4853 215.451 23.168 213.574 23.168ZM249.697 6.144L248.545 47.36V55.168C252.129 49.8773 256.694 45.6533 262.241 42.496C267.788 39.2533 272.652 37.632 276.833 37.632C284.684 37.632 288.609 39.8933 288.609 44.416C288.609 46.2933 288.012 47.8293 286.817 49.024C285.708 50.1333 284.556 50.688 283.361 50.688C282.252 50.688 280.374 50.176 277.729 49.152C275.084 48.128 272.481 47.616 269.921 47.616C263.009 47.616 257.676 50.4747 253.921 56.192C262.369 64.2987 270.561 71.3387 278.497 77.312C285.068 82.2613 288.865 85.4613 289.889 86.912C290.913 88.3627 291.425 89.856 291.425 91.392C291.425 92.928 290.913 94.208 289.889 95.232C288.865 96.256 287.5 96.768 285.793 96.768C284.172 96.768 282.294 95.872 280.161 94.08C278.113 92.2027 274.188 88.4907 268.385 82.944C262.582 77.312 256.097 71.6373 248.929 65.92C249.441 76.672 249.697 84.9067 249.697 90.624C249.697 92.416 249.185 93.9093 248.161 95.104C247.137 96.2133 245.814 96.768 244.193 96.768C242.572 96.768 241.164 96.2133 239.969 95.104C238.86 93.9093 238.305 91.9893 238.305 89.344C238.305 86.6987 238.518 80.4267 238.945 70.528C239.372 60.544 239.585 52.8213 239.585 47.36C239.585 41.8987 239.372 34.56 238.945 25.344C238.518 16.128 238.305 10.1973 238.305 7.55199C238.305 4.90666 238.86 2.98666 239.969 1.79199C241.164 0.597326 242.572 -7.62939e-06 244.193 -7.62939e-06C245.814 -7.62939e-06 247.137 0.597326 248.161 1.79199C249.185 2.90133 249.697 4.35199 249.697 6.144ZM382.935 23.424C378.071 17.536 373.079 14.592 367.959 14.592C363.948 14.592 360.578 15.9573 357.847 18.688C355.116 21.4187 353.751 24.6613 353.751 28.416C353.751 32.1707 354.818 35.2853 356.951 37.76C359.17 40.2347 361.9 42.2827 365.143 43.904C368.386 45.5253 371.884 47.4453 375.639 49.664C379.394 51.7973 382.892 54.0587 386.135 56.448C389.378 58.752 392.066 61.952 394.199 66.048C396.418 70.0587 397.527 75.008 397.527 80.896C397.527 86.784 396.375 92.6293 394.071 98.432C391.767 104.235 388.738 109.227 384.983 113.408C381.228 117.589 376.919 121.173 372.055 124.16C362.327 130.133 352.215 133.12 341.719 133.12C334.636 133.12 328.492 131.371 323.287 127.872C317.996 124.373 315.351 120.405 315.351 115.968C315.351 111.531 317.442 109.312 321.623 109.312C323.244 109.312 326.53 111.573 331.479 116.096C333.356 117.803 335.916 119.339 339.159 120.704C342.487 122.155 346.156 122.88 350.167 122.88C354.263 122.88 358.53 122.112 362.967 120.576C367.404 119.04 371.543 116.821 375.383 113.92C379.308 111.104 382.466 107.307 384.855 102.528C387.244 97.8347 388.439 92.5867 388.439 86.784C388.439 80.896 386.903 75.904 383.831 71.808C380.759 67.712 377.047 64.512 372.695 62.208C368.343 59.904 363.991 57.6853 359.639 55.552C355.287 53.3333 351.575 50.5173 348.503 47.104C345.431 43.6907 343.895 39.552 343.895 34.688C343.895 29.7387 344.962 25.344 347.095 21.504C349.314 17.664 352.087 14.7627 355.415 12.8C361.73 8.87466 368.002 6.91199 374.231 6.91199C380.46 6.91199 385.538 8.36266 389.463 11.264C393.388 14.1653 395.351 17.4933 395.351 21.248C395.351 23.4667 394.796 25.1733 393.687 26.368C392.578 27.4773 391.298 28.032 389.847 28.032C388.396 28.032 387.159 27.648 386.135 26.88C385.196 26.0267 384.13 24.8747 382.935 23.424ZM429.714 70.528L414.482 69.248C413.031 69.248 411.879 69.376 411.026 69.632C411.538 74.496 413.586 78.5493 417.17 81.792C420.839 85.0347 425.149 86.656 430.098 86.656C434.877 86.656 439.186 84.9067 443.026 81.408C444.391 80.2133 445.415 79.616 446.098 79.616C446.781 79.616 447.378 79.872 447.89 80.384C448.402 80.896 448.658 81.4507 448.658 82.048C448.658 84.5227 446.226 87.5947 441.362 91.264C436.583 94.9333 431.122 96.768 424.978 96.768C418.919 96.768 413.629 94.2933 409.106 89.344C404.669 84.3947 402.45 78.2507 402.45 70.912C402.45 61.5253 405.991 53.632 413.074 47.232C420.157 40.832 427.965 37.632 436.498 37.632C440.082 37.632 442.983 38.272 445.202 39.552C447.506 40.7467 448.658 42.3253 448.658 44.288C448.658 46.1653 448.061 47.7013 446.866 48.896C445.757 50.0907 444.647 50.688 443.538 50.688C442.429 50.688 440.509 50.176 437.778 49.152C435.133 48.128 432.573 47.616 430.098 47.616C425.49 47.616 421.479 49.024 418.066 51.84C414.738 54.5707 412.519 57.984 411.41 62.08L429.074 61.056C432.999 61.056 434.962 62.592 434.962 65.664C434.962 68.9067 433.213 70.528 429.714 70.528ZM459.314 75.52C459.314 75.52 459.655 67.712 460.338 52.096C460.338 38.1867 459.997 27.3067 459.314 19.456C458.631 11.6053 458.29 7.55199 458.29 7.296C458.29 2.43199 460.167 -7.62939e-06 463.922 -7.62939e-06C468.445 -7.62939e-06 470.706 3.49866 470.706 10.496C470.706 14.6773 470.237 21.8027 469.298 31.872C468.445 41.9413 467.975 48.64 467.89 51.968C471.474 47.5307 475.741 44.032 480.69 41.472C485.725 38.912 490.759 37.632 495.794 37.632C500.914 37.632 505.351 39.7227 509.106 43.904C512.946 48 514.866 52.992 514.866 58.88C514.866 68.352 511.239 77.056 503.986 84.992C496.733 92.8427 488.498 96.768 479.282 96.768C473.565 96.768 468.786 94.72 464.946 90.624C461.191 86.4427 459.314 81.408 459.314 75.52ZM473.266 53.376C469.511 57.1307 467.634 61.7387 467.634 67.2C467.634 72.6613 469.511 77.312 473.266 81.152C477.106 84.9067 481.714 86.784 487.09 86.784C492.551 86.784 497.117 84.9067 500.786 81.152C504.455 77.312 506.29 72.6613 506.29 67.2C506.29 61.7387 504.455 57.1307 500.786 53.376C497.117 49.6213 492.551 47.744 487.09 47.744C481.714 47.744 477.106 49.6213 473.266 53.376ZM527.853 86.656C527.853 75.904 527.64 66.4747 527.213 58.368C526.786 50.2613 526.573 45.4827 526.573 44.032C526.573 42.5813 527.128 41.1733 528.237 39.808C529.432 38.3573 530.84 37.632 532.461 37.632C534.082 37.632 535.405 38.3147 536.429 39.68C537.453 40.96 537.965 42.88 537.965 45.44C537.965 47.9147 537.666 52.1387 537.069 58.112C536.472 64 536.173 70.144 536.173 76.544C536.173 79.104 536.685 81.5787 537.709 83.968C538.818 86.272 539.373 88.4053 539.373 90.368C539.373 92.2453 538.818 93.7813 537.709 94.976C536.685 96.1707 535.234 96.768 533.357 96.768C531.565 96.768 530.2 95.744 529.261 93.696C528.322 91.648 527.853 89.3013 527.853 86.656ZM531.949 23.168C530.072 23.168 528.578 22.656 527.469 21.632C526.36 20.608 525.805 19.1147 525.805 17.152C525.805 15.1893 526.488 13.5253 527.853 12.16C529.218 10.7093 530.84 9.98399 532.717 9.98399C534.594 9.98399 536.088 10.5387 537.197 11.648C538.392 12.672 538.989 14.1653 538.989 16.128C538.989 18.0907 538.264 19.7547 536.813 21.12C535.448 22.4853 533.826 23.168 531.949 23.168ZM567.304 59.392L568.072 90.624C568.072 92.416 567.56 93.9093 566.536 95.104C565.512 96.2133 564.189 96.768 562.568 96.768C560.947 96.768 559.539 96.2133 558.344 95.104C557.235 93.9093 556.68 92.416 556.68 90.624L557.576 65.28C557.576 65.28 557.277 58.1547 556.68 43.904C556.68 42.112 557.235 40.6187 558.344 39.424C559.539 38.2293 560.947 37.632 562.568 37.632C564.189 37.632 565.512 38.2293 566.536 39.424C567.56 40.5333 568.072 41.9413 568.072 43.648C568.072 45.3547 568.029 46.6347 567.944 47.488C572.723 40.9173 578.227 37.632 584.456 37.632C593.416 37.632 599.176 43.648 601.736 55.68L606.6 77.696C607.112 79.6587 608.136 81.792 609.672 84.096C611.293 86.3147 612.104 88.32 612.104 90.112C612.104 94.5493 609.971 96.768 605.704 96.768C601.437 96.768 598.664 93.3973 597.384 86.656L592.52 59.904C590.899 51.3707 586.504 47.104 579.336 47.104C575.667 47.104 572.808 48.3413 570.76 50.816C568.712 53.2907 567.56 56.1493 567.304 59.392ZM652.209 47.104C651.782 47.104 646.449 46.7627 636.209 46.08C636.209 47.1893 636.038 51.4133 635.697 58.752C635.356 66.0907 635.185 71.552 635.185 75.136C635.185 78.6347 635.953 81.5787 637.489 83.968C639.11 86.272 639.921 88.3627 639.921 90.24C639.921 92.1173 639.281 93.696 638.001 94.976C636.721 96.1707 635.27 96.768 633.649 96.768C629.382 96.768 627.249 93.3973 627.249 86.656L626.737 60.672C626.737 55.3813 626.609 50.6453 626.353 46.464H623.281C622.086 46.464 621.105 46.1227 620.337 45.44C619.569 44.672 619.185 43.648 619.185 42.368C619.185 41.088 619.569 40.1067 620.337 39.424C621.105 38.656 622.086 38.272 623.281 38.272H625.969C625.798 33.8347 625.713 30.464 625.713 28.16C625.713 25.7707 626.268 23.8933 627.377 22.528C628.572 21.0773 629.98 20.352 631.601 20.352C633.222 20.352 634.545 21.0347 635.569 22.4C636.593 23.68 637.105 25.8133 637.105 28.8C637.105 31.7867 636.977 35.072 636.721 38.656L652.209 37.632C655.537 37.632 657.201 39.2107 657.201 42.368C657.201 45.5253 655.537 47.104 652.209 47.104ZM708.646 78.848C709.243 80.384 710.481 82.4747 712.358 85.12C714.321 87.68 715.302 89.7707 715.302 91.392C715.302 93.0133 714.875 94.336 714.022 95.36C713.169 96.2987 712.017 96.768 710.566 96.768C707.067 96.768 703.953 93.1413 701.222 85.888L700.198 83.072C695.846 92.2027 689.318 96.768 680.614 96.768C676.262 96.768 672.635 95.4027 669.734 92.672C666.918 89.856 665.51 86.3573 665.51 82.176C665.51 75.6907 667.729 70.1013 672.166 65.408C676.603 60.7147 682.406 58.1973 689.574 57.856C687.867 54.8693 685.947 52.6507 683.814 51.2C681.766 49.664 679.889 48.768 678.182 48.512C676.475 48.256 674.854 48.128 673.318 48.128C671.867 48.0427 670.715 47.7013 669.862 47.104C669.009 46.5067 668.582 45.3547 668.582 43.648C668.582 41.856 669.265 40.4053 670.63 39.296C672.081 38.1867 673.787 37.632 675.75 37.632C681.297 37.632 686.758 40.4053 692.134 45.952C697.51 51.4987 702.203 60.2027 706.214 72.064L708.646 78.848ZM686.374 64.64C683.302 64.64 680.529 65.664 678.054 67.712C675.665 69.76 674.47 72.4053 674.47 75.648C674.47 78.8907 675.537 81.6213 677.67 83.84C679.889 85.9733 682.534 87.04 685.606 87.04C688.678 87.04 691.323 85.9733 693.542 83.84C695.761 81.6213 696.87 79.0187 696.87 76.032C696.87 73.8987 696.486 71.936 695.718 70.144C694.95 68.2667 694.481 67.1147 694.31 66.688C692.091 65.3227 689.446 64.64 686.374 64.64ZM736.804 59.392L737.572 90.624C737.572 92.416 737.06 93.9093 736.036 95.104C735.012 96.2133 733.689 96.768 732.068 96.768C730.447 96.768 729.039 96.2133 727.844 95.104C726.735 93.9093 726.18 92.416 726.18 90.624L727.076 65.28C727.076 65.28 726.777 58.1547 726.18 43.904C726.18 42.112 726.735 40.6187 727.844 39.424C729.039 38.2293 730.447 37.632 732.068 37.632C733.689 37.632 735.012 38.2293 736.036 39.424C737.06 40.5333 737.572 41.9413 737.572 43.648C737.572 45.3547 737.529 46.6347 737.444 47.488C742.223 40.9173 747.727 37.632 753.956 37.632C762.916 37.632 768.676 43.648 771.236 55.68L776.1 77.696C776.612 79.6587 777.636 81.792 779.172 84.096C780.793 86.3147 781.604 88.32 781.604 90.112C781.604 94.5493 779.471 96.768 775.204 96.768C770.937 96.768 768.164 93.3973 766.884 86.656L762.02 59.904C760.399 51.3707 756.004 47.104 748.836 47.104C745.167 47.104 742.308 48.3413 740.26 50.816C738.212 53.2907 737.06 56.1493 736.804 59.392ZM817.357 47.744C811.896 47.744 807.245 49.6213 803.405 53.376C799.65 57.1307 797.773 61.7387 797.773 67.2C797.773 72.6613 799.65 77.312 803.405 81.152C807.245 84.9067 811.81 86.784 817.101 86.784C822.392 86.784 826.786 85.12 830.285 81.792C833.869 78.3787 835.874 74.1547 836.301 69.12C836.216 66.6453 836.173 63.8293 836.173 60.672C836.173 57.5147 836.728 55.2533 837.837 53.888C839.032 52.4373 840.44 51.712 842.061 51.712C843.682 51.712 845.005 52.3947 846.029 53.76C847.053 55.04 847.565 56.6187 847.565 58.496C847.565 60.3733 847.48 62.2507 847.309 64.128C847.224 65.92 847.053 68.2667 846.797 71.168C845.944 80.64 845.517 89.5147 845.517 97.792C845.517 106.069 841.848 114.005 834.509 121.6C827.17 129.28 818.978 133.12 809.933 133.12C805.41 133.12 801.485 131.84 798.157 129.28C794.829 126.72 793.165 123.947 793.165 120.96C793.165 119.424 793.677 118.059 794.701 116.864C795.81 115.669 797.09 115.072 798.541 115.072C800.077 115.072 801.442 115.499 802.637 116.352C803.917 117.205 805.069 118.144 806.093 119.168C807.202 120.192 808.824 121.131 810.957 121.984C813.176 122.837 815.65 123.264 818.381 123.264C823.757 123.264 828.237 121.259 831.821 117.248C835.405 113.323 837.197 108.629 837.197 103.168C837.197 102.485 837.069 95.36 836.813 81.792C833.144 86.4 828.749 90.0693 823.629 92.8C818.594 95.4453 813.816 96.768 809.293 96.768C803.32 96.768 798.498 94.6347 794.829 90.368C791.16 86.1013 789.325 80.768 789.325 74.368C789.325 67.8827 791.33 61.6533 795.341 55.68C799.352 49.6213 804.045 45.0987 809.421 42.112C814.797 39.1253 819.618 37.632 823.885 37.632C828.152 37.632 831.138 38.3147 832.845 39.68C834.637 40.96 835.533 42.5387 835.533 44.416C835.533 46.208 834.936 47.7013 833.741 48.896C832.632 50.0907 831.522 50.688 830.413 50.688C829.389 50.688 827.512 50.2187 824.781 49.28C822.136 48.256 819.661 47.744 817.357 47.744Z" fill="white"/>
</svg>
